<svg width="137" height="65" viewBox="0 0 137 65" fill="none" xmlns="http://www.w3.org/2000/svg">
<path d="M136.001 24.6358C135.938 24.0185 135.823 23.4763 135.671 23.0749C135.518 22.6735 135.334 22.4303 135.141 22.3746L129.451 19.5733L126.901 2.12457C126.82 1.55396 126.692 1.07272 126.533 0.735998C126.373 0.399308 126.189 0.220703 126.001 0.220703C125.814 0.220703 125.63 0.399308 125.47 0.735998C125.311 1.07272 125.183 1.55396 125.101 2.12457L122.551 19.5396L116.861 22.3746C116.676 22.4634 116.502 22.7254 116.359 23.1311C116.216 23.5368 116.109 24.0698 116.051 24.6696C115.998 25.2557 115.994 25.8795 116.038 26.4742C116.082 27.0689 116.173 27.6116 116.301 28.0446L120.431 41.5446L119.431 60.7146C119.396 61.3474 119.414 62.0015 119.485 62.5995C119.556 63.1972 119.676 63.7146 119.831 64.0896C119.983 64.4544 120.161 64.6697 120.346 64.7116C120.532 64.7534 120.717 64.6198 120.881 64.3258L126.001 55.3146L131.101 64.3596C131.242 64.6269 131.4 64.7663 131.561 64.7646C131.773 64.7673 131.98 64.5425 132.151 64.1233C132.307 63.7484 132.427 63.231 132.498 62.6333C132.568 62.0352 132.587 61.3811 132.551 60.7483L131.551 41.5783L135.681 28.0783C135.826 27.6656 135.933 27.1229 135.989 26.5133C136.046 25.9042 136.05 25.253 136.001 24.6358ZM129.851 38.1358C129.734 38.5186 129.646 38.9924 129.596 39.5162C129.545 40.0397 129.534 40.5972 129.561 41.1396L130.281 55.2808L126.521 48.5308C126.377 48.271 126.215 48.1349 126.051 48.1349C125.888 48.1349 125.726 48.271 125.581 48.5308L121.821 55.2808L122.541 41.1396C122.569 40.5972 122.558 40.0397 122.507 39.5162C122.456 38.9924 122.369 38.5186 122.251 38.1358L119.251 28.0108L123.461 25.9521C123.623 25.8761 123.777 25.667 123.91 25.3434C124.042 25.0198 124.149 24.5914 124.221 24.0958L126.001 11.2371L127.881 24.1296C127.953 24.6252 128.06 25.0535 128.193 25.3771C128.325 25.7008 128.479 25.9099 128.641 25.9858L132.851 28.0446L129.851 38.1358Z" fill="#EA5959"/>
<path d="M20 26.0869C20.1 24.3995 19.7 22.3745 19.2 22.3745L13.5 19.6745L10.9 2.12455C10.8 1.44955 10.7 1.11205 10.5 0.774548C10 -0.237952 9.4 0.437047 9.1 2.12455L6.6 19.6745L0.9 22.3745C0.6 22.3745 0.4 22.712 0.3 23.387C-0.1 24.737 -0.1 26.7619 0.3 28.1119L4.4 41.6119L3.4 60.8494C3.4 61.5244 3.4 62.1994 3.5 62.8744C3.8 64.5619 4.4 65.2369 4.9 64.2244L10 55.1119L15.1 64.2244C15.2 64.5619 15.4 64.5619 15.6 64.5619H15.8C16.3 64.2244 16.7 62.5369 16.6 60.5119L15.6 41.2744L19.7 27.7744C19.9 27.4369 20 26.7619 20 26.0869Z" fill="#EA5959"/>
<path d="M78 26.0869C78.1 24.3995 77.7 22.3745 77.2 22.3745L71.5 19.6745L68.9 2.12455C68.8 1.44955 68.7 1.11205 68.5 0.774548C68 -0.237952 67.4 0.437047 67.1 2.12455L64.6 19.6745L58.9 22.3745C58.6 22.3745 58.4 22.712 58.3 23.387C57.9 24.737 57.9 26.7619 58.3 28.1119L62.4 41.6119L61.4 60.8494C61.4 61.5244 61.4 62.1994 61.5 62.8744C61.8 64.5619 62.4 65.2369 62.9 64.2244L68 55.1119L73.1 64.2244C73.2 64.5619 73.4 64.5619 73.6 64.5619H73.8C74.3 64.2244 74.7 62.5369 74.6 60.5119L73.6 41.2744L77.7 27.7744C77.9 27.4369 78 26.7619 78 26.0869Z" fill="#EA5959"/>
<path d="M49 26.0869C49.1 24.3995 48.7 22.3745 48.2 22.3745L42.5 19.6745L39.9 2.12455C39.8 1.44955 39.7 1.11205 39.5 0.774548C39 -0.237952 38.4 0.437047 38.1 2.12455L35.6 19.6745L29.9 22.3745C29.6 22.3745 29.4 22.712 29.3 23.387C28.9 24.737 28.9 26.7619 29.3 28.1119L33.4 41.6119L32.4 60.8494C32.4 61.5244 32.4 62.1994 32.5 62.8744C32.8 64.5619 33.4 65.2369 33.9 64.2244L39 55.1119L44.1 64.2244C44.2 64.5619 44.4 64.5619 44.6 64.5619H44.8C45.3 64.2244 45.7 62.5369 45.6 60.5119L44.6 41.2744L48.7 27.7744C48.9 27.4369 49 26.7619 49 26.0869Z" fill="#EA5959"/>
<path d="M107 26.0869C107.1 24.3995 106.7 22.3745 106.2 22.3745L100.5 19.6745L97.9 2.12455C97.8 1.44955 97.7 1.11205 97.5 0.774548C97 -0.237952 96.4 0.437047 96.1 2.12455L93.6 19.6745L87.9 22.3745C87.6 22.3745 87.4 22.712 87.3 23.387C86.9 24.737 86.9 26.7619 87.3 28.1119L91.4 41.6119L90.4 60.8494C90.4 61.5244 90.4 62.1994 90.5 62.8744C90.8 64.5619 91.4 65.2369 91.9 64.2244L97 55.1119L102.1 64.2244C102.2 64.5619 102.4 64.5619 102.6 64.5619H102.8C103.3 64.2244 103.7 62.5369 103.6 60.5119L102.6 41.2744L106.7 27.7744C106.9 27.4369 107 26.7619 107 26.0869Z" fill="#EA5959"/>
</svg>
